<?xml version="1.0"?>
<svg xmlns="http://www.w3.org/2000/svg" viewBox="0 0 96 96" width="512" height="512"><g id="_03-card" data-name="03-card"><g id="Glyph"><path d="M79.823,54.763l-3.542-24.8a4,4,0,0,0-2.017-2.931L60,19.111V4a4,4,0,0,0-4-4H20a4,4,0,0,0-4,4V52a4,4,0,0,0,4,4h8V42.244a6,6,0,0,1,5.978-6.006,5.9,5.9,0,0,1,1.161.115C43.192,37.954,48,43.8,48,52v4h8a4,4,0,0,0,4-4V32.667L64,36V52L50.182,69.273,44,60V52c0-8.587-6.145-11.029-9.64-11.724A1.992,1.992,0,0,0,32,42.244V71.351a4,4,0,0,0,.2,1.265L40,96H64V88.944a4.012,4.012,0,0,1,.422-1.789L79.441,57.118A4,4,0,0,0,79.823,54.763Z"/></g></g></svg>
