<svg width="508" height="602" viewBox="0 0 508 602" fill="none" xmlns="http://www.w3.org/2000/svg">
<g clip-path="url(#clip0)">
<path d="M205.03 330.772C193.471 318.556 183.587 304.855 175.637 290.031C173.572 281.971 172.089 273.772 171.201 265.498C171.201 262.945 170.535 260.392 170.424 257.783L222.111 248.07L222.888 248.903C233.847 261.499 245.71 273.279 258.381 284.148L344.897 207.94C342.734 199.115 340.571 190.29 338.352 181.465L399.357 115.415C412.168 118.745 424.812 122.353 437.346 126.516L496.742 74.5635C495.078 72.5099 493.415 70.4562 491.64 68.4581C465.477 38.5734 431.043 17.1304 392.696 6.84422C354.349 -3.44199 313.815 -2.10883 276.226 10.6749C238.637 23.4586 205.684 47.118 181.538 78.6572C157.392 110.197 143.141 148.197 140.587 187.848C138.84 214.176 142.306 240.59 150.786 265.574C159.265 290.558 172.592 313.62 190.001 333.436C191.72 335.434 193.55 337.321 195.547 338.986L205.03 330.772ZM279.511 23.111C325.048 7.38499 374.882 9.76943 418.712 29.7715C405.202 31.3781 391.906 34.4488 379.059 38.9298C377.063 39.5958 375.066 40.4284 373.07 41.2054L284.669 30.1046C283.08 27.6795 281.358 25.3447 279.511 23.111ZM235.144 87.6071C244.184 77.8938 253.113 68.014 262.541 58.6893C268.299 52.8945 274.411 47.4631 280.842 42.4265L370.685 53.5274C373.402 59.7994 376.231 66.0159 378.615 72.4544C382.83 83.5552 386.712 95.0446 390.705 106.368L330.921 170.919C329.202 170.586 327.538 170.253 325.819 170.031L279.511 164.481V164.092L261.82 162.926L231.872 91.9364C232.751 90.4142 233.753 88.9663 234.867 87.6071H235.144ZM166.542 241.521C163.547 233.528 160.442 225.535 157.835 217.376C155.858 211.102 154.211 204.729 152.899 198.283C152.899 195.119 152.899 191.9 153.287 188.68C155.124 159.656 163.728 131.465 178.41 106.368C178.387 106.626 178.387 106.886 178.41 107.145H179.02C192.149 101.939 205.947 98.6132 220.004 97.2648L248.011 163.87V164.203C245.792 168.699 243.352 173.084 241.3 177.691C232.716 196.369 225.596 215.687 220.004 235.471L168.871 245.128C167.934 244.038 167.15 242.824 166.542 241.521Z" fill="#043A40"/>
<path d="M245.737 323.944C254.666 326.72 263.483 329.495 272.19 333.103C275.573 334.379 278.901 335.711 282.339 337.099L303.192 426.516L302.748 427.127C288.075 445.844 271.76 463.211 254 479.023L172.143 451.271C168.927 437.451 165.655 423.519 162.327 409.81C161.551 406.368 160.663 402.927 159.831 399.486L69.1013 479.19C76.6991 486.017 84.5742 492.678 92.7821 498.839L102.709 563.501C101.877 563.501 101.045 563.89 100.158 564.001C88.9673 565.894 77.5839 566.379 66.2729 565.444C47.4542 554.946 30.5723 541.298 16.3603 525.092L6.98779 533.751C24.3634 553.583 45.4745 569.793 69.114 581.453C92.7535 593.114 118.458 599.997 144.757 601.708C171.056 603.42 197.434 599.926 222.384 591.427C247.333 582.929 270.364 569.591 290.159 552.178C320.186 525.816 341.682 491.097 351.906 452.452C362.13 413.808 360.616 372.991 347.559 335.212C339.027 310.714 325.845 288.097 308.738 268.607L245.737 323.944ZM194.992 585.647L260.988 545.684L263.04 545.296C271.482 543.148 279.751 540.365 287.774 536.97C262.076 561.661 229.901 578.541 194.992 585.647ZM253.279 528.866C253.279 530.92 253.279 533.029 253.556 535.138L175.914 582.317C159.636 579.727 143.62 575.696 128.054 570.273C124.116 568.885 120.068 567.719 116.186 565.999L106.259 501.447L108.699 500.226C128.993 490.081 148.677 478.757 167.651 466.313L170.479 464.426L250.062 491.345C251.356 503.778 252.429 516.285 253.279 528.866ZM345.34 413.417C344.692 423.339 343.264 433.193 341.07 442.89C333.167 435.898 324.647 429.638 315.614 424.185L294.097 331.604C299.801 319.285 304.296 306.44 307.517 293.25C307.932 291.639 308.082 289.97 307.961 288.311C335.046 324.158 348.317 368.573 345.34 413.417Z" fill="#043A40"/>
<path d="M0 526.369L504.34 83.2223" stroke="black" stroke-miterlimit="10"/>
</g>
<defs>
<clipPath id="clip0">
<rect width="508" height="602" fill="white"/>
</clipPath>
</defs>
</svg>
