<svg id="Capa_1" enable-background="new 0 0 448 448" height="512" viewBox="0 0 448 448" width="512" xmlns="http://www.w3.org/2000/svg"><g><path d="m167 176c0-29.935-15.933-56.214-39.76-70.817 38.756-37.857 11.54-105.297-43.241-105.183-54.778-.114-81.997 67.336-43.239 105.183-23.827 14.602-39.76 40.882-39.76 70.817v55h166zm-114.5-114.5c0-17.369 14.131-31.5 31.5-31.5 41.789 1.73 41.777 61.276 0 63-17.369 0-31.5-14.131-31.5-31.5zm84.5 139.5h-106v-25c0-29.225 23.775-53 53-53s53 23.775 53 53z"/><path d="m407.24 322.183c38.756-37.857 11.54-105.297-43.241-105.183-54.778-.115-81.997 67.336-43.239 105.183-23.827 14.602-39.76 40.882-39.76 70.817v55h166v-55c0-29.935-15.933-56.215-39.76-70.817zm-74.74-43.683c0-17.369 14.131-31.5 31.5-31.5 41.789 1.73 41.777 61.276 0 63-17.369 0-31.5-14.131-31.5-31.5zm84.5 139.5h-106v-25c0-29.225 23.775-53 53-53s53 23.775 53 53z"/><path d="m292.054 85c31.4 0 56.946 25.546 56.946 56.946v45.054h30v-45.054c0-47.942-39.004-86.946-86.946-86.946h-39.03l21.775-27.737-23.598-18.526-49.271 62.763 49.271 62.763 23.598-18.525-24.131-30.738z"/><path d="m173.201 337.263 24.13 30.737h-41.385c-31.4 0-56.946-25.546-56.946-56.946v-45.054h-30v45.054c0 47.942 39.004 86.946 86.946 86.946h39.03l-21.775 27.737 23.598 18.525 49.271-62.762-49.271-62.763z"/></g></svg>